<?xml version="1.0" encoding="utf-8"?><svg version="1.1" id="Layer_1" xmlns="http://www.w3.org/2000/svg" xmlns:xlink="http://www.w3.org/1999/xlink" x="0px" y="0px" viewBox="0 0 102.34 122.88" style="enable-background:new 0 0 102.34 122.88" xml:space="preserve"><style type="text/css"><![CDATA[
	.st0{fill-rule:evenodd;clip-rule:evenodd;}
]]></style><g><path fill="#fff" class="st0" d="M53.36,3.31c8.7-6.01,9.35,5.89,17.89-1.55V13.9c-8.14,7.33-9.9-4.51-17.89,1.5V3.31L53.36,3.31L53.36,3.31z M49.45,37.01h1.52c0.28,0,0.5,0.23,0.5,0.5v5.84h5.33c0.28,0,0.5,0.23,0.5,0.5v1.52c0,0.28-0.23,0.5-0.5,0.5h-7.86v-8.37 C48.94,37.24,49.17,37.01,49.45,37.01L49.45,37.01L49.45,37.01z M51.17,30.17c6.85,0,12.4,5.55,12.4,12.4 c0,6.85-5.55,12.4-12.4,12.4c-6.85,0-12.4-5.55-12.4-12.4C38.77,35.73,44.32,30.17,51.17,30.17L51.17,30.17L51.17,30.17z M52.87,71.74v40.27h12.25V71.74H52.87L52.87,71.74z M49.47,112.01V71.74H37.22l0,0v40.27H49.47L49.47,112.01z M102.34,122.85 V51.86H75.38V34.67L52.13,19.69V3.09h-0.08c0.49-0.28,0.81-0.82,0.81-1.43c0-0.92-0.74-1.66-1.66-1.66s-1.66,0.74-1.66,1.66 c0,0.61,0.33,1.14,0.81,1.43h-0.08v16.57l-23.3,15.01v17.19H7.23H0v71.02C34.12,122.88,68.22,122.85,102.34,122.85L102.34,122.85 L102.34,122.85z M10.99,71.74h13.49v5.25H10.99V71.74L10.99,71.74L10.99,71.74z M77.85,71.74h13.49v5.25H77.85V71.74L77.85,71.74 L77.85,71.74z M10.99,83.33h13.49v5.25H10.99V83.33L10.99,83.33L10.99,83.33z M77.85,83.33h13.49v5.25H77.85V83.33L77.85,83.33 L77.85,83.33z M10.99,94.92h13.49v5.25H10.99V94.92L10.99,94.92L10.99,94.92z M77.85,94.92h13.49v5.25H77.85V94.92L77.85,94.92 L77.85,94.92z M10.99,106.51h13.49v5.25H10.99V106.51L10.99,106.51L10.99,106.51z M77.85,106.51h13.49v5.25H77.85V106.51 L77.85,106.51L77.85,106.51z"/></g></svg>